HIERARCHY
ROOT hip
{
  OFFSET 0 0 0
  CHANNELS 6 Xposition Yposition Zposition Zrotation Yrotation Xrotation
  JOINT abdomen
  {
    OFFSET 0 20.6881 -0.73152
    CHANNELS 3 Zrotation Xrotation Yrotation
    JOINT chest
    {
      OFFSET 0 11.7043 -0.48768
      CHANNELS 3 Zrotation Xrotation Yrotation
      JOINT neck
      {
        OFFSET 0 22.1894 -2.19456
        CHANNELS 3 Zrotation Xrotation Yrotation
        JOINT head
        {
          OFFSET -0.24384 7.07133 1.2192
          CHANNELS 3 Zrotation Xrotation Yrotation
          JOINT leftEye
          {
            OFFSET 4.14528 8.04674 8.04672
            CHANNELS 3 Zrotation Xrotation Yrotation
            End Site
            {
              OFFSET 1 0 0
            }
          }
          JOINT rightEye
          {
            OFFSET -3.6576 8.04674 8.04672
            CHANNELS 3 Zrotation Xrotation Yrotation
            End Site
            {
              OFFSET 1 0 0
            }
          }
        }
      }
      JOINT rCollar
      {
        OFFSET -2.68224 19.2634 -4.8768
        CHANNELS 3 Zrotation Xrotation Yrotation
        JOINT rShldr
        {
          OFFSET -8.77824 -1.95073 1.46304
          CHANNELS 3 Zrotation Xrotation Yrotation
          JOINT rForeArm
          {
            OFFSET -28.1742 -1.7115 0.48768
            CHANNELS 3 Zrotation Xrotation Yrotation
            JOINT rHand
            {
              OFFSET -22.5879 0.773209 7.07136
              CHANNELS 3 Zrotation Xrotation Yrotation
              JOINT rThumb1
              {
                OFFSET -1.2192 -0.487915 3.41376
                CHANNELS 3 Zrotation Xrotation Yrotation
                JOINT rThumb2
                {
                  OFFSET -3.37035 -0.52449 3.41376
                  CHANNELS 3 Zrotation Xrotation Yrotation
                  End Site
                  {
                    OFFSET -1.78271 -1.18214 1.43049
                  }
                }
              }
              JOINT rIndex1
              {
                OFFSET -7.75947 0.938293 5.60832
                CHANNELS 3 Zrotation Xrotation Yrotation
                JOINT rIndex2
                {
                  OFFSET -2.54057 -0.884171 1.56538
                  CHANNELS 3 Zrotation Xrotation Yrotation
                  End Site
                  {
                    OFFSET -1.62519 -0.234802 1.16502
                  }
                }
              }
              JOINT rMid1
              {
                OFFSET -8.24714 1.18213 3.41376
                CHANNELS 3 Zrotation Xrotation Yrotation
                JOINT rMid2
                {
                  OFFSET -3.10165 -0.590103 1.0647
                  CHANNELS 3 Zrotation Xrotation Yrotation
                  End Site
                  {
                    OFFSET -2.48547 -0.328903 0.83742
                  }
                }
              }
              JOINT rRing1
              {
                OFFSET -8.82822 0.546677 1.51678
                CHANNELS 3 Zrotation Xrotation Yrotation
                JOINT rRing2
                {
                  OFFSET -2.60934 -0.819778 -0.0198488
                  CHANNELS 3 Zrotation Xrotation Yrotation
                  End Site
                  {
                    OFFSET -2.33842 -0.294052 0.168128
                  }
                }
              }
              JOINT rPinky1
              {
                OFFSET -8.27202 -0.0477905 -0.4584
                CHANNELS 3 Zrotation Xrotation Yrotation
                JOINT rPinky2
                {
                  OFFSET -1.82734 -0.647385 -0.700984
                  CHANNELS 3 Zrotation Xrotation Yrotation
                  End Site
                  {
                    OFFSET -1.69225 -0.51767 -0.607171
                  }
                }
              }
            }
          }
        }
      }
      JOINT lCollar
      {
        OFFSET 2.68224 19.2634 -4.8768
        CHANNELS 3 Zrotation Xrotation Yrotation
        JOINT lShldr
        {
          OFFSET 8.77824 -1.95073 1.46304
          CHANNELS 3 Zrotation Xrotation Yrotation
          JOINT lForeArm
          {
            OFFSET 28.1742 -1.7115 0.48768
            CHANNELS 3 Zrotation Xrotation Yrotation
            JOINT lHand
            {
              OFFSET 22.5879 0.773209 7.07136
              CHANNELS 3 Zrotation Xrotation Yrotation
              JOINT lThumb1
              {
                OFFSET 1.2192 -0.487915 3.41376
                CHANNELS 3 Zrotation Xrotation Yrotation
                JOINT lThumb2
                {
                  OFFSET 3.37035 -0.52449 3.41376
                  CHANNELS 3 Zrotation Xrotation Yrotation
                  End Site
                  {
                    OFFSET 1.78271 -1.18214 1.43049
                  }
                }
              }
              JOINT lIndex1
              {
                OFFSET 7.75947 0.938293 5.60832
                CHANNELS 3 Zrotation Xrotation Yrotation
                JOINT lIndex2
                {
                  OFFSET 2.54057 -0.884171 1.56538
                  CHANNELS 3 Zrotation Xrotation Yrotation
                  End Site
                  {
                    OFFSET 1.62519 -0.234802 1.16502
                  }
                }
              }
              JOINT lMid1
              {
                OFFSET 8.24714 1.18213 3.41376
                CHANNELS 3 Zrotation Xrotation Yrotation
                JOINT lMid2
                {
                  OFFSET 3.10165 -0.590103 1.0647
                  CHANNELS 3 Zrotation Xrotation Yrotation
                  End Site
                  {
                    OFFSET 2.48547 -0.328903 0.83742
                  }
                }
              }
              JOINT lRing1
              {
                OFFSET 8.82822 0.546677 1.51678
                CHANNELS 3 Zrotation Xrotation Yrotation
                JOINT lRing2
                {
                  OFFSET 2.60934 -0.819778 -0.0198488
                  CHANNELS 3 Zrotation Xrotation Yrotation
                  End Site
                  {
                    OFFSET 2.33842 -0.294052 0.168128
                  }
                }
              }
              JOINT lPinky1
              {
                OFFSET 8.27202 -0.0477905 -0.4584
                CHANNELS 3 Zrotation Xrotation Yrotation
                JOINT lPinky2
                {
                  OFFSET 1.82734 -0.647385 -0.700984
                  CHANNELS 3 Zrotation Xrotation Yrotation
                  End Site
                  {
                    OFFSET 1.69225 -0.51767 -0.607171
                  }
                }
              }
            }
          }
        }
      }
    }
  }
  JOINT rButtock
  {
    OFFSET -8.77824 4.35084 1.2192
    CHANNELS 3 Zrotation Xrotation Yrotation
    JOINT rThigh
    {
      OFFSET 0 -1.70687 -2.19456
      CHANNELS 3 Zrotation Xrotation Yrotation
      JOINT rShin
      {
        OFFSET 0 -36.8199 0.73152
        CHANNELS 3 Zrotation Xrotation Yrotation
        JOINT rFoot
        {
          OFFSET 0.73152 -45.1104 -5.12064
          CHANNELS 3 Zrotation Xrotation Yrotation
          End Site
          {
            OFFSET -1.1221 -3.69964 12.103
          }
        }
      }
    }
  }
  JOINT lButtock
  {
    OFFSET 8.77824 4.35084 1.2192
    CHANNELS 3 Zrotation Xrotation Yrotation
    JOINT lThigh
    {
      OFFSET 0 -1.70687 -2.19456
      CHANNELS 3 Zrotation Xrotation Yrotation
      JOINT lShin
      {
        OFFSET 0 -36.8199 0.73152
        CHANNELS 3 Zrotation Xrotation Yrotation
        JOINT lFoot
        {
          OFFSET -0.73152 -45.1104 -5.12064
          CHANNELS 3 Zrotation Xrotation Yrotation
          End Site
          {
            OFFSET 1.1221 -3.69964 12.103
          }
        }
      }
    }
  }
}
MOTION
Frames:	4
Frame Time:	0.00833333
-50.1525 85.4272 -79.523 0.0 0.0 0.0 1.74076 -0.00337333 0.047555 0.480624 0.000939362 0.0832336 -6.98095e-15 -7.95139e-16 2.98177e-16 -2.13103e-14 3.18055e-15 8.91425e-16 -0.0 0.0 0.0 -0.0 0.0 0.0 -3.72898e-15 -5.59082e-17 2.48481e-16 -7.23822e-14 -1.48467e-15 3.37934e-15 -1.26343e-12 3.26802e-13 6.04305e-14 -1.43608e-11 -6.07088e-13 6.13847e-13 -3.38942e-11 -6.05921e-13 1.47578e-12 -5.85405e-11 -1.0464e-12 2.55478e-12 -3.38876e-11 -6.05498e-13 1.46942e-12 7.73091 5.47488 0.417314 -3.38935e-11 -6.05597e-13 1.47896e-12 2.90554 0.965183 0.102902 -3.38817e-11 -6.052e-13 1.47578e-12 10.2786 0.731801 0.0259123 -3.38993e-11 -6.04305e-13 1.48532e-12 2.22167 -0.733487 -0.20892 -3.82506e-15 -5.97907e-17 -4.96962e-17 -7.59499e-14 -1.18028e-15 1.98785e-15 -1.24877e-12 -4.16056e-13 6.99722e-14 -1.43747e-11 1.61438e-13 6.23389e-13 -3.38881e-11 -5.54276e-13 1.48214e-12 -5.85107e-11 -9.57347e-13 2.5524e-12 -3.38928e-11 -5.52224e-13 1.49804e-12 -7.73091 5.47488 -0.417314 -3.38884e-11 -5.54112e-13 1.47578e-12 -2.90554 0.965183 -0.102902 -3.38962e-11 -5.54013e-13 1.48293e-12 -10.2786 0.731801 -0.0259123 -3.38828e-11 -5.53417e-13 1.47578e-12 -2.22167 -0.733487 0.20892 -2.03217e-16 0.0 -3.88251e-19 1.78273 -6.93917 -0.172437 0.00357188 7.0059 0.0919087 -0.484425 -0.0713287 0.0535383 2.03217e-16 0.0 3.88251e-19 0.870834 -1.92398 0.00260045 0.00878012 -2.07863 0.0722323 0.449395 3.99793 -0.131045
-42.2801 84.6321 -86.6231 -76.8901 88.5104 -74.6878 2.4637 1.1597 0.398283 0.959865 -1.41924 0.259596 -1.64298 -2.16838 -1.01276 1.82357 4.1424 -1.31543 -0.0 0.0 0.0 -0.0 0.0 0.0 2.36128e-14 3.55943e-13 4.10653e-15 21.0076 0.280604 -0.676064 -3.924 -1.72776 6.18763 0.165541 9.0499 1.21541 2.2267e-11 2.08717e-10 -3.44259e-10 2.92559e-11 3.56458e-10 -5.95335e-10 2.22727e-11 2.08719e-10 -3.44264e-10 7.73091 5.47488 0.417314 2.22638e-11 2.08715e-10 -3.4425e-10 2.90554 0.965183 0.102902 2.22767e-11 2.0872e-10 -3.44259e-10 10.2786 0.731801 0.0259123 2.22618e-11 2.08721e-10 -3.4425e-10 2.22167 -0.733487 -0.20892 2.35349e-14 3.55942e-13 3.74701e-15 -23.2702 1.46566 0.885995 2.86076 -1.11174 -4.65175 -0.0103137 -2.25517 0.31606 -8.15064e-11 2.86689e-11 2.72455e-10 -1.41444e-10 4.93813e-11 4.70706e-10 -8.15102e-11 2.86708e-11 2.72474e-10 -7.73091 5.47488 -0.417314 -8.15063e-11 2.86691e-11 2.72452e-10 -2.90554 0.965183 -0.102902 -8.15147e-11 2.86689e-11 2.72458e-10 -10.2786 0.731801 -0.0259123 -8.14993e-11 2.86696e-11 2.72453e-10 -2.22167 -0.733487 0.20892 -2.03217e-16 0.0 -3.88251e-19 0.0289565 -5.53027 -2.06789 0.00709644 7.84764 0.127397 -0.547026 -2.62407 -2.6664 2.03217e-16 0.0 3.88251e-19 3.06763 -3.61001 -3.87836 -0.00472294 3.61455 -0.0936014 1.03432 -1.61611 4.12292
-42.1433 84.6429 -86.4956 -80.3262 88.4781 -78.2142 3.21115 2.391 0.777016 1.47428 -2.92157 0.448449 -3.46441 -4.46009 -2.08841 3.96064 8.50617 -2.72911 -0.0 0.0 0.0 -0.0 0.0 0.0 5.25218e-14 7.40672e-13 7.88616e-15 43.2204 0.554362 -1.39436 -7.65928 -3.48036 12.7317 -0.0981919 18.633 2.60956 1.14365e-10 4.74735e-10 -7.67284e-10 1.77159e-10 8.11408e-10 -1.32753e-09 1.1437e-10 4.7474e-10 -7.67287e-10 7.73091 5.47488 0.417314 1.14358e-10 4.74731e-10 -7.67269e-10 2.90554 0.965183 0.102902 1.14372e-10 4.74741e-10 -7.67284e-10 10.2786 0.731801 0.0259123 1.1436e-10 4.74742e-10 -7.67275e-10 2.22167 -0.733487 -0.20892 5.24648e-14 7.40673e-13 7.45753e-15 -47.9162 3.00599 1.81981 5.693 -2.26458 -9.5808 0.00595942 -4.65035 0.65341 -1.0975e-10 8.07287e-11 6.41527e-10 -1.91229e-10 1.3925e-10 1.10852e-09 -1.09753e-10 8.07305e-11 6.41549e-10 -7.73091 5.47488 -0.417314 -1.0975e-10 8.07289e-11 6.41528e-10 -2.90554 0.965183 -0.102902 -1.09759e-10 8.07285e-11 6.41532e-10 -10.2786 0.731801 -0.0259123 -1.09741e-10 8.07292e-11 6.4153e-10 -2.22167 -0.733487 0.20892 -2.03217e-16 0.0 -3.88251e-19 -1.72776 -4.04557 -4.05593 0.00967024 8.73731 0.165065 -0.877207 -5.30261 -5.55931 2.03217e-16 0.0 3.88251e-19 5.13676 -5.36223 -7.99795 0.0171985 9.63456 -0.272321 2.56235 -7.47591 8.69191
-42.0079 84.6406 -86.3684 -83.9436 88.4441 -81.9306 3.8668 3.48528 1.10153 1.94464 -4.25939 0.613777 -5.16005 -6.49698 -3.05575 6.05242 12.4007 -4.03014 -0.0 0.0 0.0 -0.0 0.0 0.0 7.82964e-14 1.06794e-12 1.18226e-14 63.0427 0.841344 -2.02839 -10.6707 -4.94195 18.6262 -0.774964 27.0977 4.04552 1.34589e-10 6.27362e-10 -1.03573e-09 2.04849e-10 1.07147e-09 -1.79111e-09 1.34593e-10 6.27368e-10 -1.03573e-09 7.73091 5.47488 0.417314 1.34578e-10 6.27357e-10 -1.03571e-09 2.90554 0.965183 0.102902 1.34594e-10 6.27371e-10 -1.03573e-09 10.2786 0.731801 0.0259123 1.34584e-10 6.27371e-10 -1.03572e-09 2.22167 -0.733487 -0.20892 7.82548e-14 1.06794e-12 1.13404e-14 -69.9468 4.39278 2.66495 8.04592 -3.24739 -13.9755 0.0441417 -6.76469 0.954088 -1.76743e-10 8.71152e-11 8.14401e-10 -3.07311e-10 1.50059e-10 1.40701e-09 -1.76745e-10 8.71168e-11 8.14425e-10 -7.73091 5.47488 -0.417314 -1.76742e-10 8.71156e-11 8.14405e-10 -2.90554 0.965183 -0.102902 -1.76752e-10 8.71147e-11 8.14408e-10 -10.2786 0.731801 -0.0259123 -1.76732e-10 8.71156e-11 8.14408e-10 -2.22167 -0.733487 0.20892 -2.03217e-16 0.0 -3.88251e-19 -3.19908 -2.70904 -5.83898 0.0109725 9.5311 0.198913 -1.40217 -7.66046 -8.17131 2.03217e-16 0.0 3.88251e-19 6.77734 -6.86264 -11.7022 0.0695893 15.0005 -0.439595 4.72892 -12.5408 12.9392
